<svg width="231" height="231" viewBox="0 0 231 231" fill="none" xmlns="http://www.w3.org/2000/svg">
<circle cx="115.5" cy="115.5" r="115.5" fill="url(#paint0_linear_6_17)"/>
<path fill-rule="evenodd" clip-rule="evenodd" d="M121.709 37.2357C120.13 37.6342 118.348 38.5239 117.12 39.5276C116.351 40.1551 106.536 53.0942 78.473 90.4738C57.7838 118.032 40.3956 141.136 39.8327 141.817C36.2062 146.203 36.048 152.171 39.4372 156.737C39.8058 157.234 47.8634 165.37 57.3426 174.817C74.089 191.506 74.6201 192.013 76.075 192.717C78.7733 194.02 81.6084 194.337 84.3408 193.638C86.3192 193.133 87.4635 192.527 89.445 190.935C90.3549 190.204 95.0661 186.628 99.9139 182.989C104.762 179.35 112.807 173.305 117.792 169.556C153.217 142.912 164.34 134.548 176.539 125.383C184.149 119.666 190.746 114.577 191.199 114.074C192.869 112.219 194 109.144 194 106.456C194 104.179 193.205 101.616 191.921 99.7575C191.611 99.3088 177.973 85.5421 161.615 69.1649C129.754 37.2669 130.996 38.4392 128.061 37.4979C126.389 36.9615 123.301 36.8341 121.709 37.2357ZM124.595 50.4742C122.489 50.8521 120.164 52.0829 118.818 53.5329C118.431 53.9506 116.26 56.6749 113.995 59.5871C109.191 65.7625 81.7658 100.864 72.6774 112.47C69.2427 116.856 66.4325 120.499 66.4325 120.565C66.4325 120.72 69.7754 122.873 71.9116 124.093C74.5029 125.573 79.8435 128.142 82.4284 129.151C88.9523 131.698 92.9405 132.558 99.5037 132.834C104.202 133.031 107.147 133.438 110.876 134.406C117.662 136.168 125.602 139.947 131.653 144.294C132.542 144.932 133.283 145.335 133.419 145.254C134.165 144.808 178.282 111.614 178.635 111.233C179.39 110.418 180.467 108.454 180.864 107.171C181.421 105.371 181.392 102.393 180.801 100.66C179.81 97.7574 180.935 98.9474 156.52 74.9765C149.881 68.4587 142.109 60.8184 139.248 57.9982C136.384 55.1751 133.547 52.5528 132.934 52.1633C130.668 50.7241 127.162 50.014 124.595 50.4742Z" fill="#FBFDFF"/>
<defs>
<linearGradient id="paint0_linear_6_17" x1="34.5807" y1="59.2712" x2="138.966" y2="232.884" gradientUnits="userSpaceOnUse">
<stop stop-color="#32BDEF"/>
<stop offset="1" stop-color="#1EA2E4"/>
</linearGradient>
</defs>
</svg>
