<svg width="164" height="164" viewBox="0 0 164 164" fill="none" xmlns="http://www.w3.org/2000/svg">
<path d="M82 164C127.287 164 164 127.287 164 82C164 36.7127 127.287 0 82 0C36.7127 0 0 36.7127 0 82C0 127.287 36.7127 164 82 164Z" fill="url(#paint0_linear_1514_1072)" fill-opacity="0.8"/>
<path fill-rule="evenodd" clip-rule="evenodd" d="M86.4294 26.1681C85.3031 26.4524 84.0323 27.0871 83.1556 27.8031C82.6076 28.2508 75.6052 37.4812 55.586 64.1468C40.8266 83.8059 28.4223 100.288 28.0208 100.774C25.4337 103.903 25.3209 108.16 27.7386 111.417C28.0016 111.772 33.7497 117.576 40.5119 124.315C52.4584 136.221 52.8375 136.583 53.8754 137.085C55.8003 138.015 57.8227 138.24 59.7717 137.742C61.1831 137.382 61.9993 136.949 63.4128 135.814C64.0622 135.292 67.423 132.741 70.8813 130.146C74.3396 127.549 80.079 123.237 83.6351 120.562C108.907 101.555 116.842 95.5886 125.544 89.0507C130.973 84.9719 135.679 81.3412 136.002 80.9828C137.194 79.6594 138 77.4659 138 75.5487C138 73.924 137.433 72.0956 136.517 70.7697C136.296 70.4497 126.567 60.629 114.898 48.9459C92.1683 26.1904 93.0544 27.0267 90.9605 26.3552C89.7678 25.9726 87.5647 25.8816 86.4294 26.1681ZM88.4879 35.6122C86.9856 35.8818 85.3272 36.7598 84.3673 37.7942C84.0909 38.0922 82.5425 40.0356 80.9263 42.1131C77.4995 46.5186 57.9348 71.5592 51.4516 79.8384C49.001 82.9677 46.9963 85.5661 46.9963 85.6135C46.9963 85.7244 49.3814 87.2595 50.9052 88.1301C52.7538 89.1861 56.5635 91.0183 58.4074 91.7384C63.0614 93.5555 65.9065 94.1691 70.5885 94.3657C73.9403 94.5063 76.0412 94.7965 78.7013 95.4873C83.5424 96.7443 89.2068 99.4398 93.5231 102.541C94.1575 102.996 94.6861 103.284 94.7836 103.226C95.3157 102.908 126.787 79.2278 127.039 78.9557C127.577 78.3749 128.346 76.9739 128.629 76.0584C129.026 74.7743 129.005 72.6493 128.584 71.4135C127.877 69.3428 128.68 70.1919 111.263 53.0915C106.527 48.4418 100.982 42.9913 98.9413 40.9796C96.8986 38.9657 94.8741 37.095 94.4369 36.8172C92.8207 35.7904 90.3193 35.2839 88.4879 35.6122Z" fill="#FBFDFF"/>
<defs>
<linearGradient id="paint0_linear_1514_1072" x1="-67.2487" y1="82.1663" x2="240.071" y2="82.1663" gradientUnits="userSpaceOnUse">
<stop stop-color="#FF0F7B"/>
<stop offset="1" stop-color="#F89B29"/>
</linearGradient>
</defs>
</svg>
