<svg width="50" height="50" viewBox="0 0 50 50" fill="none" xmlns="http://www.w3.org/2000/svg">
<circle cx="25" cy="25" r="25" fill="#FAFCFC"/>
<path d="M29 21C30.5913 21 32.1174 21.6321 33.2426 22.7574C34.3679 23.8826 35 25.4087 35 27V34H31V27C31 26.4696 30.7893 25.9609 30.4142 25.5858C30.0391 25.2107 29.5304 25 29 25C28.4696 25 27.9609 25.2107 27.5858 25.5858C27.2107 25.9609 27 26.4696 27 27V34H23V27C23 25.4087 23.6321 23.8826 24.7574 22.7574C25.8826 21.6321 27.4087 21 29 21ZM15 22H19V34H15V22Z" fill="#1A2537"/>
<path d="M17 19C18.1046 19 19 18.1046 19 17C19 15.8954 18.1046 15 17 15C15.8954 15 15 15.8954 15 17C15 18.1046 15.8954 19 17 19Z" fill="#1A2537"/>
</svg>
