<svg width="18" height="19" viewBox="0 0 18 19" fill="none" xmlns="http://www.w3.org/2000/svg">
<path d="M9 18.041C4.5525 18.041 0.9375 14.3456 0.9375 9.79928C0.9375 5.25295 4.5525 1.55762 9 1.55762C13.4475 1.55762 17.0625 5.25295 17.0625 9.79928C17.0625 14.3456 13.4475 18.041 9 18.041ZM9 2.70762C5.175 2.70762 2.0625 5.88928 2.0625 9.79928C2.0625 13.7093 5.175 16.891 9 16.891C12.825 16.891 15.9375 13.7093 15.9375 9.79928C15.9375 5.88928 12.825 2.70762 9 2.70762Z" fill="#22C36B"/>
<path d="M7.93508 12.5439C7.78508 12.5439 7.64258 12.4826 7.53758 12.3752L5.41508 10.2056C5.19758 9.98324 5.19758 9.61525 5.41508 9.39291C5.63258 9.17058 5.99258 9.17058 6.21008 9.39291L7.93508 11.1562L11.7901 7.21558C12.0076 6.99324 12.3676 6.99324 12.5851 7.21558C12.8026 7.43791 12.8026 7.80591 12.5851 8.02824L8.33258 12.3752C8.22758 12.4826 8.08508 12.5439 7.93508 12.5439Z" fill="#22C36B"/>
</svg>
