<svg width="13" height="12" viewBox="0 0 13 12" fill="none" xmlns="http://www.w3.org/2000/svg">
<path d="M5.70195 11.375H3.80195C1.60695 11.375 0.626953 10.395 0.626953 8.2V6.3C0.626953 4.105 1.60695 3.125 3.80195 3.125H5.30195C5.50695 3.125 5.67695 3.295 5.67695 3.5C5.67695 3.705 5.50695 3.875 5.30195 3.875H3.80195C2.01195 3.875 1.37695 4.51 1.37695 6.3V8.2C1.37695 9.99 2.01195 10.625 3.80195 10.625H5.70195C7.49195 10.625 8.12695 9.99 8.12695 8.2V6.7C8.12695 6.495 8.29695 6.325 8.50195 6.325C8.70695 6.325 8.87695 6.495 8.87695 6.7V8.2C8.87695 10.395 7.89695 11.375 5.70195 11.375Z" fill="white"/>
<path d="M8.50176 7.07524H6.90176C5.49676 7.07524 4.92676 6.50524 4.92676 5.10024V3.50024C4.92676 3.35024 5.01676 3.21024 5.15676 3.15524C5.29676 3.09524 5.45676 3.13024 5.56676 3.23524L8.76676 6.43524C8.87176 6.54024 8.90676 6.70524 8.84676 6.84524C8.79176 6.98524 8.65176 7.07524 8.50176 7.07524ZM5.67676 4.40524V5.10024C5.67676 6.09524 5.90676 6.32524 6.90176 6.32524H7.59676L5.67676 4.40524Z" fill="white"/>
<path d="M7.80176 1.375H5.80176C5.59676 1.375 5.42676 1.205 5.42676 1C5.42676 0.795 5.59676 0.625 5.80176 0.625H7.80176C8.00676 0.625 8.17676 0.795 8.17676 1C8.17676 1.205 8.00676 1.375 7.80176 1.375Z" fill="white"/>
<path d="M3.50195 2.875C3.29695 2.875 3.12695 2.705 3.12695 2.5C3.12695 1.465 3.96695 0.625 5.00195 0.625H6.31195C6.51695 0.625 6.68695 0.795 6.68695 1C6.68695 1.205 6.51695 1.375 6.31195 1.375H5.00195C4.38195 1.375 3.87695 1.88 3.87695 2.5C3.87695 2.705 3.70695 2.875 3.50195 2.875Z" fill="white"/>
<path d="M9.59717 8.875C9.39217 8.875 9.22217 8.705 9.22217 8.5C9.22217 8.295 9.39217 8.125 9.59717 8.125C10.1672 8.125 10.6272 7.66 10.6272 7.095V4C10.6272 3.795 10.7972 3.625 11.0022 3.625C11.2072 3.625 11.3772 3.795 11.3772 4V7.095C11.3772 8.075 10.5772 8.875 9.59717 8.875Z" fill="white"/>
<path d="M11.002 4.37524H9.50195C8.17195 4.37524 7.62695 3.83024 7.62695 2.50024V1.00024C7.62695 0.850239 7.71695 0.710238 7.85695 0.655238C7.99695 0.595238 8.15695 0.630239 8.26695 0.735239L11.267 3.73524C11.372 3.84024 11.407 4.00524 11.347 4.14524C11.292 4.28524 11.152 4.37524 11.002 4.37524ZM8.37695 1.90524V2.50024C8.37695 3.41524 8.58695 3.62524 9.50195 3.62524H10.097L8.37695 1.90524Z" fill="white"/>
</svg>
